<svg xmlns="http://www.w3.org/2000/svg" xmlns:xlink="http://www.w3.org/1999/xlink" width="50" height="50" viewBox="0 0 50 50"><defs><path id="a" d="M50 0v50H0V0z"/><path id="c" d="M0 50h50V0H0z"/></defs><g fill="none" fill-rule="evenodd"><path fill="#EBCFB9" d="M23.05 39.873h4.02v-5.357h-4.02z"/><mask id="b" fill="#fff"><use xlink:href="#a"/></mask><path fill="#FFE11B" d="M50 25c0 13.807-11.192 25-25 25C11.193 50 0 38.807 0 25S11.193 0 25 0c13.808 0 25 11.193 25 25" mask="url(#b)"/><path fill="#FADDC5" d="M11.418 45.78s-.166-5.062 5.118-7.024c1.96-.727 5.776-.654 8.393-.654 2.54 0 7.468-.107 9.404.596 5.435 1.97 4.635 7.07 4.635 7.07s-4.83 4.06-14.04 4.06c-10.832 0-13.512-4.047-13.512-4.047"/><path fill="#47C3CF" d="M11.418 45.78s-.166-5.062 5.118-7.024c1.106-.41 2.802-.565 4.54-.624 0 0 .088 4.137 4.252 4.137 4.184 0 4.318-4.14 4.318-4.14 1.866.056 3.682.202 4.688.568 5.435 1.97 4.635 7.07 4.635 7.07s-4.83 4.06-14.04 4.06c-10.832 0-13.512-4.047-13.512-4.047"/><mask id="d" fill="#fff"><use xlink:href="#c"/></mask><path fill="#FADDC5" d="M23.27 39.873h4.02v-5.357h-4.02z" mask="url(#d)"/><path fill="#D3B8A3" d="M23.257 35.083h4.03s-.54 1.764-2.008 1.774c-1.468.01-2.023-1.774-2.023-1.774" mask="url(#d)"/><path fill="#FADDC5" d="M36.154 23.76c0 6.41-5.027 11.608-11.224 11.608-6.2 0-11.226-5.197-11.226-11.61 0-6.41 5.027-11.61 11.226-11.61 6.197 0 11.224 5.2 11.224 11.61" mask="url(#d)"/><path fill="#FFF" d="M26.64 32.27s-.163 1.294-1.28 1.294c-1.116 0-1.46-1.295-1.31-1.295" mask="url(#d)"/><path fill="#A56826" d="M18.204 19.192s1.665 5.688 7.124 4.148c7.347-2.073 10.62 2.023 10.826.715v-.296s1.81-13.04-11.225-13.04c-13.036 0-11.225 13.04-11.225 13.04s3.903-.937 4.5-4.568" mask="url(#d)"/></g></svg>